<svg width="2560" height="2560" xmlns="http://www.w3.org/2000/svg" version="1.1" enable-background="new 0 0 2560 2560" xml:space="preserve">
 <g>
  <title>Layer 1</title>
  <path fill="#FEFEFE" d="m1730.78723,628.2456c0.04102,188.57789 0.07007,376.18598 0.15137,563.79407c0.00232,5.45655 -0.50525,10.05066 -5.06922,14.3003c-39.74499,37.00805 -79.22937,74.29614 -118.80102,111.4906c-1.17297,1.10241 -2.45532,2.08825 -5.38538,4.56323c-0.2738,-115.69409 -0.02526,-229.71301 -0.07666,-343.72998c-0.05139,-114.25897 -0.01135,-228.51801 -0.01135,-343.75122c-173.73828,0 -346.83301,0 -521.74878,0c2.31091,-3.14411 3.34607,-4.97077 4.76514,-6.42188c38.90539,-39.78277 77.89856,-79.47992 116.72119,-119.34326c4.44568,-4.56482 8.87622,-6.83389 15.57422,-6.8248c164.28284,0.22296 328.56628,0.19376 492.84949,0.20957c6.60608,0.00064 13.21215,0.00006 21.02673,0.00006c0,42.30768 0,83.52557 0.00427,125.71331z" id="svg_2"/>
  <path fill="#FDFDFD" d="m1216.00134,1215.13452c109.9231,0.00012 218.84607,0.00012 329.62195,0.00012c-2.77197,3.37989 -4.19189,5.44507 -5.93481,7.18689c-40.29993,40.27747 -80.70825,80.44703 -120.86866,120.86292c-4.8363,4.86706 -9.70507,6.85559 -16.583,6.85083c-214.9253,-0.15051 -429.85071,-0.10584 -644.77613,-0.09107c-3.93536,0.00025 -7.87072,0 -12.41406,0c0,-45.24316 0,-89.68493 0,-134.80981c156.92334,0 313.43897,0 470.95471,0.00012z" id="svg_3"/>
  <path fill="#FFFFFF" d="m990.7533,846.00067c0.00036,110.56824 0.00036,220.13642 0.00036,330.49506c-43.75549,0 -86.86169,0 -130.73498,0c0,-212.56128 0,-425.19214 0,-638.4524c43.36255,0 86.48657,0 130.73431,0c0,102.63495 0,204.79615 0.00031,307.95734z" id="svg_4"/>
  <path fill="#FFFFFF" d="m859.30542,1853.99976c0.00006,-155.58948 0.00006,-310.17872 0.00006,-465.46412c43.54895,0 86.67035,0 130.61987,0c0,193.92066 0,387.93836 0,582.54126c-43.08648,0 -86.22387,0 -130.62005,0c0,-39.00732 0,-77.54223 0.00012,-117.07714z" id="svg_5"/>
 </g>

</svg>