<svg version="1.1" id="Layer_1" xmlns="http://www.w3.org/2000/svg" xmlns:xlink="http://www.w3.org/1999/xlink" x="0px" y="0px"
	 width="100%" viewBox="0 0 2560 2560" enable-background="new 0 0 2560 2560" xml:space="preserve">
<path fill="#000000" opacity="1.000000" stroke="none" 
	d="
M1624.000000,2562.000000 
	C1082.666626,2562.000000 542.333313,2562.000000 2.000000,2562.000000 
	C2.000000,1708.666626 2.000000,855.333313 2.000000,2.000000 
	C855.333313,2.000000 1708.666626,2.000000 2562.000000,2.000000 
	C2562.000000,855.333313 2562.000000,1708.666626 2562.000000,2562.000000 
	C2249.666748,2562.000000 1937.333374,2562.000000 1624.000000,2562.000000 
M1730.782959,627.275757 
	C1730.782959,586.057861 1730.782959,544.839966 1730.782959,502.532288 
	C1722.968384,502.532288 1716.362305,502.532867 1709.756226,502.532227 
	C1545.473022,502.516418 1381.189575,502.545624 1216.906738,502.322662 
	C1210.208740,502.313568 1205.778198,504.582642 1201.332520,509.147461 
	C1162.509888,549.010803 1123.516724,588.707947 1084.611328,628.490723 
	C1083.192261,629.941833 1082.157104,631.768494 1079.846191,634.912598 
	C1254.761963,634.912598 1427.856689,634.912598 1601.594971,634.912598 
	C1601.594971,750.145813 1601.554932,864.404846 1601.606323,978.663818 
	C1601.657715,1092.680786 1601.409180,1206.699707 1601.682983,1322.393799 
	C1604.613037,1319.918823 1605.895386,1318.932983 1607.068359,1317.830566 
	C1646.640015,1280.636108 1686.124390,1243.348022 1725.869385,1206.339966 
	C1730.433350,1202.090332 1730.940918,1197.496216 1730.938599,1192.039673 
	C1730.857300,1004.431580 1730.828247,816.823486 1730.782959,627.275757 
M1215.001221,1215.134399 
	C1058.485596,1215.134399 901.969971,1215.134399 745.046631,1215.134399 
	C745.046631,1260.259277 745.046631,1304.701050 745.046631,1349.944214 
	C749.589966,1349.944214 753.525330,1349.944458 757.460693,1349.944214 
	C972.386108,1349.929443 1187.311523,1349.884766 1402.236816,1350.035278 
	C1409.114746,1350.040039 1413.983521,1348.051514 1418.819824,1343.184448 
	C1458.980225,1302.768555 1499.388550,1262.598999 1539.688477,1222.321533 
	C1541.431396,1220.579712 1542.851318,1218.514526 1545.623291,1215.134644 
	C1434.847412,1215.134644 1325.924438,1215.134644 1215.001221,1215.134399 
M990.752991,845.000610 
	C990.752991,742.839478 990.752991,640.678284 990.752991,538.043335 
	C946.505249,538.043335 903.381226,538.043335 860.018677,538.043335 
	C860.018677,751.303589 860.018677,963.934448 860.018677,1176.495728 
	C903.891968,1176.495728 946.998169,1176.495728 990.753662,1176.495728 
	C990.753662,1066.137085 990.753662,956.568909 990.752991,845.000610 
M859.305298,1854.999756 
	C859.305298,1893.534668 859.305298,1932.069580 859.305298,1971.076904 
	C903.701477,1971.076904 946.838867,1971.076904 989.925354,1971.076904 
	C989.925354,1776.473999 989.925354,1582.456299 989.925354,1388.535645 
	C945.975830,1388.535645 902.854431,1388.535645 859.305481,1388.535645 
	C859.305481,1543.821045 859.305481,1698.410278 859.305298,1854.999756 
z"/>
<path fill="#FEFEFE" opacity="1.000000" stroke="none" 
	d="
M1730.787231,628.245605 
	C1730.828247,816.823486 1730.857300,1004.431580 1730.938599,1192.039673 
	C1730.940918,1197.496216 1730.433350,1202.090332 1725.869385,1206.339966 
	C1686.124390,1243.348022 1646.640015,1280.636108 1607.068359,1317.830566 
	C1605.895386,1318.932983 1604.613037,1319.918823 1601.682983,1322.393799 
	C1601.409180,1206.699707 1601.657715,1092.680786 1601.606323,978.663818 
	C1601.554932,864.404846 1601.594971,750.145813 1601.594971,634.912598 
	C1427.856689,634.912598 1254.761963,634.912598 1079.846191,634.912598 
	C1082.157104,631.768494 1083.192261,629.941833 1084.611328,628.490723 
	C1123.516724,588.707947 1162.509888,549.010803 1201.332520,509.147461 
	C1205.778198,504.582642 1210.208740,502.313568 1216.906738,502.322662 
	C1381.189575,502.545624 1545.473022,502.516418 1709.756226,502.532227 
	C1716.362305,502.532867 1722.968384,502.532288 1730.782959,502.532288 
	C1730.782959,544.839966 1730.782959,586.057861 1730.787231,628.245605 
z"/>
<path fill="#FDFDFD" opacity="1.000000" stroke="none" 
	d="
M1216.001343,1215.134521 
	C1325.924438,1215.134644 1434.847412,1215.134644 1545.623291,1215.134644 
	C1542.851318,1218.514526 1541.431396,1220.579712 1539.688477,1222.321533 
	C1499.388550,1262.598999 1458.980225,1302.768555 1418.819824,1343.184448 
	C1413.983521,1348.051514 1409.114746,1350.040039 1402.236816,1350.035278 
	C1187.311523,1349.884766 972.386108,1349.929443 757.460693,1349.944214 
	C753.525330,1349.944458 749.589966,1349.944214 745.046631,1349.944214 
	C745.046631,1304.701050 745.046631,1260.259277 745.046631,1215.134399 
	C901.969971,1215.134399 1058.485596,1215.134399 1216.001343,1215.134521 
z"/>
<path fill="#FFFFFF" opacity="1.000000" stroke="none" 
	d="
M990.753296,846.000671 
	C990.753662,956.568909 990.753662,1066.137085 990.753662,1176.495728 
	C946.998169,1176.495728 903.891968,1176.495728 860.018677,1176.495728 
	C860.018677,963.934448 860.018677,751.303589 860.018677,538.043335 
	C903.381226,538.043335 946.505249,538.043335 990.752991,538.043335 
	C990.752991,640.678284 990.752991,742.839478 990.753296,846.000671 
z"/>
<path fill="#FFFFFF" opacity="1.000000" stroke="none" 
	d="
M859.305420,1853.999756 
	C859.305481,1698.410278 859.305481,1543.821045 859.305481,1388.535645 
	C902.854431,1388.535645 945.975830,1388.535645 989.925354,1388.535645 
	C989.925354,1582.456299 989.925354,1776.473999 989.925354,1971.076904 
	C946.838867,1971.076904 903.701477,1971.076904 859.305298,1971.076904 
	C859.305298,1932.069580 859.305298,1893.534668 859.305420,1853.999756 
z"/>
</svg>